<svg id="visual" viewBox="0 0 900 675" width="900" height="675" xmlns="http://www.w3.org/2000/svg" xmlns:xlink="http://www.w3.org/1999/xlink" version="1.1"><rect x="0" y="0" width="900" height="675" fill="#002233"></rect><path d="M0 475L21.5 493.3C43 511.7 86 548.3 128.8 553.2C171.7 558 214.3 531 257.2 518.8C300 506.7 343 509.3 385.8 521.7C428.7 534 471.3 556 514.2 562.3C557 568.7 600 559.3 642.8 546.2C685.7 533 728.3 516 771.2 508.2C814 500.3 857 501.7 878.5 502.3L900 503L900 676L878.5 676C857 676 814 676 771.2 676C728.3 676 685.7 676 642.8 676C600 676 557 676 514.2 676C471.3 676 428.7 676 385.8 676C343 676 300 676 257.2 676C214.3 676 171.7 676 128.8 676C86 676 43 676 21.5 676L0 676Z" fill="#0066FF" stroke-linecap="round" stroke-linejoin="miter"></path></svg>