<svg id="visual" viewBox="0 0 900 675" width="900" height="675" xmlns="http://www.w3.org/2000/svg" xmlns:xlink="http://www.w3.org/1999/xlink" version="1.1"><rect x="0" y="0" width="900" height="675" fill="#af436e"></rect><g transform="translate(467.3956166195601 365.50587248500597)"><path d="M152.6 -234C180.2 -190 172.8 -121.9 168.3 -70.2C163.8 -18.5 162.2 16.8 167.6 71.3C173.1 125.8 185.8 199.4 159 223.6C132.3 247.7 66.1 222.3 14.3 202.7C-37.6 183.1 -75.2 169.2 -111.2 148.1C-147.2 126.9 -181.5 98.5 -198.1 61.2C-214.6 23.8 -213.4 -22.6 -199.9 -65.3C-186.5 -108 -160.8 -147 -125.5 -188.5C-90.1 -230 -45.1 -274 8.7 -286C62.5 -298 125 -278.1 152.6 -234" fill="#BB004B"></path></g></svg>