<svg id="visual" viewBox="0 0 900 800" width="900" height="800" xmlns="http://www.w3.org/2000/svg" xmlns:xlink="http://www.w3.org/1999/xlink" version="1.1"><rect x="0" y="0" width="900" height="800" fill="#af436e"></rect><g transform="translate(492.98492907408877 374.1400931690176)"><path d="M172.8 -248.5C204.5 -214.8 197.3 -138.3 199.5 -77.6C201.6 -16.9 213 28 219.2 90.4C225.3 152.7 226.1 232.5 188.7 274.3C151.3 316.2 75.6 320.1 -1.4 322C-78.4 323.9 -156.7 323.7 -212.5 287.9C-268.3 252 -301.6 180.4 -307.4 111.8C-313.2 43.3 -291.7 -22.2 -256.1 -68.3C-220.6 -114.3 -171.1 -140.9 -126.1 -170.3C-81.1 -199.6 -40.6 -231.8 15 -252.5C70.5 -273.1 141.1 -282.2 172.8 -248.5" fill="#BB004B"></path></g></svg>