<svg id="visual" viewBox="0 0 900 800" width="900" height="800" xmlns="http://www.w3.org/2000/svg" xmlns:xlink="http://www.w3.org/1999/xlink" version="1.1"><g stroke-width="1" stroke-linejoin="bevel"><path d="M504 373L583 399L599 285Z" fill="#297ea6" stroke="#297ea6"></path><path d="M599 285L515 273L504 373Z" fill="#00101c" stroke="#00101c"></path><path d="M583 399L664 281L599 285Z" fill="#15384f" stroke="#15384f"></path><path d="M599 285L625 236L515 273Z" fill="#297ea6" stroke="#297ea6"></path><path d="M664 281L625 236L599 285Z" fill="#19435d" stroke="#19435d"></path><path d="M625 236L480 216L515 273Z" fill="#277297" stroke="#277297"></path><path d="M515 273L369 312L504 373Z" fill="#246688" stroke="#246688"></path><path d="M583 399L710 419L664 281Z" fill="#1d4e6b" stroke="#1d4e6b"></path><path d="M507 521L602 509L583 399Z" fill="#00101c" stroke="#00101c"></path><path d="M583 399L602 509L710 419Z" fill="#1d4e6b" stroke="#1d4e6b"></path><path d="M664 281L688 197L625 236Z" fill="#277297" stroke="#277297"></path><path d="M625 236L566 116L480 216Z" fill="#1d4e6b" stroke="#1d4e6b"></path><path d="M787 201L688 197L664 281Z" fill="#1d4e6b" stroke="#1d4e6b"></path><path d="M427 502L507 521L504 373Z" fill="#297ea6" stroke="#297ea6"></path><path d="M504 373L507 521L583 399Z" fill="#246688" stroke="#246688"></path><path d="M480 216L369 312L515 273Z" fill="#15384f" stroke="#15384f"></path><path d="M369 312L367 395L504 373Z" fill="#1d4e6b" stroke="#1d4e6b"></path><path d="M367 395L427 502L504 373Z" fill="#081a28" stroke="#081a28"></path><path d="M688 197L566 116L625 236Z" fill="#19435d" stroke="#19435d"></path><path d="M480 216L367 202L369 312Z" fill="#277297" stroke="#277297"></path><path d="M360 95L367 202L480 216Z" fill="#19435d" stroke="#19435d"></path><path d="M369 312L264 406L367 395Z" fill="#00101c" stroke="#00101c"></path><path d="M574 606L694 536L602 509Z" fill="#277297" stroke="#277297"></path><path d="M602 509L694 536L710 419Z" fill="#112e42" stroke="#112e42"></path><path d="M427 502L484 572L507 521Z" fill="#15384f" stroke="#15384f"></path><path d="M507 521L574 606L602 509Z" fill="#19435d" stroke="#19435d"></path><path d="M367 202L322 270L369 312Z" fill="#297ea6" stroke="#297ea6"></path><path d="M566 0L538 91L566 116Z" fill="#19435d" stroke="#19435d"></path><path d="M566 116L538 91L480 216Z" fill="#00101c" stroke="#00101c"></path><path d="M787 201L704 135L688 197Z" fill="#081a28" stroke="#081a28"></path><path d="M688 197L704 135L566 116Z" fill="#1d4e6b" stroke="#1d4e6b"></path><path d="M837 520L813 385L710 419Z" fill="#1d4e6b" stroke="#1d4e6b"></path><path d="M710 419L813 385L664 281Z" fill="#00101c" stroke="#00101c"></path><path d="M837 294L787 201L664 281Z" fill="#00101c" stroke="#00101c"></path><path d="M484 572L574 606L507 521Z" fill="#297ea6" stroke="#297ea6"></path><path d="M813 385L837 294L664 281Z" fill="#246688" stroke="#246688"></path><path d="M322 270L264 406L369 312Z" fill="#1d4e6b" stroke="#1d4e6b"></path><path d="M367 395L297 500L427 502Z" fill="#277297" stroke="#277297"></path><path d="M427 502L433 627L484 572Z" fill="#15384f" stroke="#15384f"></path><path d="M264 406L297 500L367 395Z" fill="#297ea6" stroke="#297ea6"></path><path d="M367 202L292 173L322 270Z" fill="#277297" stroke="#277297"></path><path d="M322 270L171 339L264 406Z" fill="#00101c" stroke="#00101c"></path><path d="M360 95L292 173L367 202Z" fill="#0c2435" stroke="#0c2435"></path><path d="M538 91L360 95L480 216Z" fill="#246688" stroke="#246688"></path><path d="M328 612L433 627L427 502Z" fill="#277297" stroke="#277297"></path><path d="M484 572L479 697L574 606Z" fill="#1d4e6b" stroke="#1d4e6b"></path><path d="M574 606L725 625L694 536Z" fill="#00101c" stroke="#00101c"></path><path d="M694 536L837 520L710 419Z" fill="#00101c" stroke="#00101c"></path><path d="M701 687L725 625L574 606Z" fill="#297ea6" stroke="#297ea6"></path><path d="M787 201L765 77L704 135Z" fill="#00101c" stroke="#00101c"></path><path d="M690 0L566 0L566 116Z" fill="#1d4e6b" stroke="#1d4e6b"></path><path d="M538 91L470 0L360 95Z" fill="#112e42" stroke="#112e42"></path><path d="M900 110L765 77L787 201Z" fill="#19435d" stroke="#19435d"></path><path d="M810 608L837 520L694 536Z" fill="#277297" stroke="#277297"></path><path d="M900 396L900 285L837 294Z" fill="#0c2435" stroke="#0c2435"></path><path d="M690 0L566 116L704 135Z" fill="#19435d" stroke="#19435d"></path><path d="M479 697L579 677L574 606Z" fill="#297ea6" stroke="#297ea6"></path><path d="M900 396L837 294L813 385Z" fill="#15384f" stroke="#15384f"></path><path d="M837 294L900 236L787 201Z" fill="#205a7a" stroke="#205a7a"></path><path d="M837 520L900 396L813 385Z" fill="#277297" stroke="#277297"></path><path d="M566 0L470 0L538 91Z" fill="#081a28" stroke="#081a28"></path><path d="M900 285L900 236L837 294Z" fill="#0c2435" stroke="#0c2435"></path><path d="M313 0L267 134L360 95Z" fill="#1d4e6b" stroke="#1d4e6b"></path><path d="M360 95L267 134L292 173Z" fill="#1d4e6b" stroke="#1d4e6b"></path><path d="M130 263L171 339L322 270Z" fill="#0c2435" stroke="#0c2435"></path><path d="M297 500L328 612L427 502Z" fill="#205a7a" stroke="#205a7a"></path><path d="M433 627L479 697L484 572Z" fill="#297ea6" stroke="#297ea6"></path><path d="M228 637L328 612L297 500Z" fill="#15384f" stroke="#15384f"></path><path d="M765 77L690 0L704 135Z" fill="#081a28" stroke="#081a28"></path><path d="M328 612L394 662L433 627Z" fill="#15384f" stroke="#15384f"></path><path d="M394 662L479 697L433 627Z" fill="#205a7a" stroke="#205a7a"></path><path d="M767 697L810 608L725 625Z" fill="#15384f" stroke="#15384f"></path><path d="M725 625L810 608L694 536Z" fill="#297ea6" stroke="#297ea6"></path><path d="M837 520L900 532L900 396Z" fill="#277297" stroke="#277297"></path><path d="M470 0L392 0L360 95Z" fill="#0c2435" stroke="#0c2435"></path><path d="M579 677L701 687L574 606Z" fill="#205a7a" stroke="#205a7a"></path><path d="M572 800L701 687L579 677Z" fill="#0c2435" stroke="#0c2435"></path><path d="M205 160L322 270L292 173Z" fill="#246688" stroke="#246688"></path><path d="M264 406L180 515L297 500Z" fill="#00101c" stroke="#00101c"></path><path d="M900 612L900 532L837 520Z" fill="#1d4e6b" stroke="#1d4e6b"></path><path d="M171 339L167 361L264 406Z" fill="#112e42" stroke="#112e42"></path><path d="M198 131L205 160L267 134Z" fill="#205a7a" stroke="#205a7a"></path><path d="M267 134L205 160L292 173Z" fill="#277297" stroke="#277297"></path><path d="M900 236L900 110L787 201Z" fill="#246688" stroke="#246688"></path><path d="M765 77L795 0L690 0Z" fill="#246688" stroke="#246688"></path><path d="M900 110L795 0L765 77Z" fill="#081a28" stroke="#081a28"></path><path d="M701 687L767 697L725 625Z" fill="#1d4e6b" stroke="#1d4e6b"></path><path d="M810 608L900 612L837 520Z" fill="#00101c" stroke="#00101c"></path><path d="M710 800L767 697L701 687Z" fill="#0c2435" stroke="#0c2435"></path><path d="M210 0L198 131L267 134Z" fill="#00101c" stroke="#00101c"></path><path d="M205 160L130 263L322 270Z" fill="#1d4e6b" stroke="#1d4e6b"></path><path d="M171 339L119 400L167 361Z" fill="#277297" stroke="#277297"></path><path d="M392 0L313 0L360 95Z" fill="#081a28" stroke="#081a28"></path><path d="M134 476L180 515L264 406Z" fill="#00101c" stroke="#00101c"></path><path d="M328 612L260 708L394 662Z" fill="#0c2435" stroke="#0c2435"></path><path d="M122 167L130 263L205 160Z" fill="#15384f" stroke="#15384f"></path><path d="M167 361L134 476L264 406Z" fill="#15384f" stroke="#15384f"></path><path d="M900 725L900 612L810 608Z" fill="#246688" stroke="#246688"></path><path d="M130 263L119 400L171 339Z" fill="#205a7a" stroke="#205a7a"></path><path d="M180 515L228 637L297 500Z" fill="#277297" stroke="#277297"></path><path d="M472 800L572 800L479 697Z" fill="#00101c" stroke="#00101c"></path><path d="M124 633L228 637L180 515Z" fill="#1d4e6b" stroke="#1d4e6b"></path><path d="M119 400L134 476L167 361Z" fill="#0c2435" stroke="#0c2435"></path><path d="M472 800L479 697L407 800Z" fill="#277297" stroke="#277297"></path><path d="M479 697L572 800L579 677Z" fill="#00101c" stroke="#00101c"></path><path d="M198 131L122 167L205 160Z" fill="#1d4e6b" stroke="#1d4e6b"></path><path d="M130 263L0 280L119 400Z" fill="#112e42" stroke="#112e42"></path><path d="M112 62L122 167L198 131Z" fill="#112e42" stroke="#112e42"></path><path d="M407 800L479 697L394 662Z" fill="#297ea6" stroke="#297ea6"></path><path d="M164 688L260 708L228 637Z" fill="#277297" stroke="#277297"></path><path d="M228 637L260 708L328 612Z" fill="#112e42" stroke="#112e42"></path><path d="M900 110L900 0L795 0Z" fill="#112e42" stroke="#112e42"></path><path d="M313 0L210 0L267 134Z" fill="#081a28" stroke="#081a28"></path><path d="M572 800L710 800L701 687Z" fill="#277297" stroke="#277297"></path><path d="M767 697L900 725L810 608Z" fill="#00101c" stroke="#00101c"></path><path d="M315 800L407 800L394 662Z" fill="#1d4e6b" stroke="#1d4e6b"></path><path d="M789 800L900 725L767 697Z" fill="#297ea6" stroke="#297ea6"></path><path d="M710 800L789 800L767 697Z" fill="#277297" stroke="#277297"></path><path d="M260 708L315 800L394 662Z" fill="#277297" stroke="#277297"></path><path d="M210 0L112 62L198 131Z" fill="#0c2435" stroke="#0c2435"></path><path d="M0 229L0 280L130 263Z" fill="#1d4e6b" stroke="#1d4e6b"></path><path d="M134 476L124 633L180 515Z" fill="#00101c" stroke="#00101c"></path><path d="M260 708L226 800L315 800Z" fill="#297ea6" stroke="#297ea6"></path><path d="M93 660L124 633L0 568Z" fill="#297ea6" stroke="#297ea6"></path><path d="M124 633L164 688L228 637Z" fill="#297ea6" stroke="#297ea6"></path><path d="M210 0L133 0L112 62Z" fill="#0c2435" stroke="#0c2435"></path><path d="M0 229L122 167L0 124Z" fill="#1d4e6b" stroke="#1d4e6b"></path><path d="M0 229L130 263L122 167Z" fill="#205a7a" stroke="#205a7a"></path><path d="M119 400L0 438L134 476Z" fill="#081a28" stroke="#081a28"></path><path d="M0 568L124 633L134 476Z" fill="#205a7a" stroke="#205a7a"></path><path d="M124 633L93 660L164 688Z" fill="#297ea6" stroke="#297ea6"></path><path d="M164 688L226 800L260 708Z" fill="#297ea6" stroke="#297ea6"></path><path d="M0 280L0 438L119 400Z" fill="#0c2435" stroke="#0c2435"></path><path d="M0 124L122 167L112 62Z" fill="#1d4e6b" stroke="#1d4e6b"></path><path d="M85 800L226 800L164 688Z" fill="#246688" stroke="#246688"></path><path d="M789 800L900 800L900 725Z" fill="#19435d" stroke="#19435d"></path><path d="M0 438L0 531L134 476Z" fill="#297ea6" stroke="#297ea6"></path><path d="M0 0L0 124L112 62Z" fill="#0c2435" stroke="#0c2435"></path><path d="M0 531L0 568L134 476Z" fill="#00101c" stroke="#00101c"></path><path d="M93 660L85 800L164 688Z" fill="#112e42" stroke="#112e42"></path><path d="M133 0L0 0L112 62Z" fill="#19435d" stroke="#19435d"></path><path d="M0 736L85 800L93 660Z" fill="#0c2435" stroke="#0c2435"></path><path d="M0 568L0 736L93 660Z" fill="#0c2435" stroke="#0c2435"></path><path d="M0 736L0 800L85 800Z" fill="#205a7a" stroke="#205a7a"></path></g></svg>