<svg id="visual" viewBox="0 0 960 540" width="960" height="540" xmlns="http://www.w3.org/2000/svg" xmlns:xlink="http://www.w3.org/1999/xlink" version="1.1"><rect x="0" y="0" width="960" height="540" fill="#002233"></rect><path d="M0 380L22.8 394.7C45.7 409.3 91.3 438.7 137 442.5C182.7 446.3 228.3 424.7 274 414.8C319.7 405 365.3 407 411.2 416.8C457 426.7 503 444.3 548.8 449.5C594.7 454.7 640.3 447.3 686 436.8C731.7 426.3 777.3 412.7 823 406.3C868.7 400 914.3 401 937.2 401.5L960 402L960 541L937.2 541C914.3 541 868.7 541 823 541C777.3 541 731.7 541 686 541C640.3 541 594.7 541 548.8 541C503 541 457 541 411.2 541C365.3 541 319.7 541 274 541C228.3 541 182.7 541 137 541C91.3 541 45.7 541 22.8 541L0 541Z" fill="#0066FF" stroke-linecap="round" stroke-linejoin="miter"></path></svg>